<?xml version="1.0" encoding="UTF-8"?>
<svg width="44px" height="31px" viewBox="0 0 44 31" version="1.1" xmlns="http://www.w3.org/2000/svg" xmlns:xlink="http://www.w3.org/1999/xlink">
    <!-- Generator: Sketch 63.1 (92452) - https://sketch.com -->
    <title>icon_shelter</title>
    <desc>Created with Sketch.</desc>
    <defs>
        <polygon id="path-1" points="1.47108695e-05 0.2688 43.5196884 0.2688 43.5196884 30.603648 1.47108695e-05 30.603648"></polygon>
    </defs>
    <g id="UNRWA---Desktop---EN" stroke="none" stroke-width="1" fill="none" fill-rule="evenodd">
        <g id="THE-DIFFERENCE-YOU-MAKE" transform="translate(-561.000000, -2638.000000)">
            <g id="Group-4" transform="translate(246.000000, 2608.000000)">
                <g id="icon_shelter" transform="translate(315.000000, 30.000000)">
                    <g id="Group-3" transform="translate(0.000000, 0.011712)">
                        <mask id="mask-2" fill="white">
                            <use xlink:href="#path-1"></use>
                        </mask>
                        <g id="Clip-2"></g>
                        <path d="M43.19744,13.655168 L22.12608,0.371328 C21.89696,0.234368 21.62304,0.234368 21.39392,0.371328 L0.32256,13.655168 C0.00128,13.838208 -0.0896,14.250368 0.09344,14.571648 L0.96384,15.900288 C1.14688,16.220288 1.55904,16.312448 1.88032,16.129408 L7.01056,12.876928 L7.01056,29.962368 C7.01056,30.328448 7.28448,30.603648 7.65056,30.603648 L9.2544,30.603648 C9.62176,30.603648 9.89568,30.328448 9.89568,29.962368 L9.89568,11.043968 L21.76,3.577728 L33.62432,11.043968 L33.62432,29.962368 C33.62432,30.328448 33.89824,30.603648 34.26432,30.603648 L35.86816,30.603648 C36.23552,30.603648 36.50944,30.328448 36.50944,29.962368 L36.50944,12.876928 L41.63968,16.129408 C41.96096,16.312448 42.37312,16.220288 42.55616,15.900288 L43.42656,14.571648 C43.6096,14.250368 43.51744,13.838208 43.19744,13.655168" id="Fill-1" fill="#24AAE2" mask="url(#mask-2)"></path>
                    </g>
                    <path d="M17.22496,10.73568 C18.38848,10.73568 19.33184,11.67904 19.33184,12.84256 C19.33184,14.00608 18.38848,14.94944 17.22496,14.94944 C16.06144,14.94944 15.11808,14.00608 15.11808,12.84256 C15.11808,11.67904 16.06144,10.73568 17.22496,10.73568" id="Fill-4" fill="#24AAE2"></path>
                    <path d="M26.294912,10.73568 C27.458432,10.73568 28.401792,11.67904 28.401792,12.84256 C28.401792,14.00608 27.458432,14.94944 26.294912,14.94944 C25.131392,14.94944 24.188032,14.00608 24.188032,12.84256 C24.188032,11.67904 25.131392,10.73568 26.294912,10.73568" id="Fill-6" fill="#24AAE2"></path>
                    <path d="M28.9056,16.048704 C28.76864,15.819584 28.49344,15.636544 28.21824,15.636544 L24.37184,15.636544 C24.09664,15.636544 23.82144,15.774784 23.6832,16.048704 L21.75936,19.255104 L19.8368,16.048704 C19.69856,15.819584 19.42336,15.636544 19.14944,15.636544 L15.30176,15.636544 C15.02656,15.636544 14.75136,15.774784 14.6144,16.048704 L12.0032,20.354624 C11.82016,20.675904 11.82016,21.134144 12.14016,21.408064 C12.5536,21.775424 13.10272,21.637184 13.37792,21.225024 L14.88832,18.705984 L14.88832,29.699904 C14.88832,30.156864 15.2096,30.570304 15.62176,30.661184 C16.21696,30.798144 16.76736,30.341184 16.76736,29.744704 L16.76736,23.331904 L17.63776,23.331904 L17.63776,29.699904 C17.63776,30.156864 17.95776,30.570304 18.3712,30.661184 C18.96512,30.798144 19.51552,30.341184 19.51552,29.744704 L19.51552,18.752064 L21.0272,21.271104 C21.11936,21.408064 21.25632,21.545024 21.39328,21.592384 C21.80544,21.775424 22.2176,21.592384 22.40064,21.271104 L23.9136,18.752064 L23.9136,20.949824 L22.30976,24.019264 C22.03456,24.523584 22.40064,25.118784 22.99712,25.118784 L23.9136,25.118784 L23.9136,29.744704 C23.9136,30.202944 24.2336,30.615104 24.64576,30.707264 C25.24096,30.844224 25.79136,30.385984 25.79136,29.790784 L25.79136,25.072704 L26.66176,25.072704 L26.66176,29.699904 C26.66176,30.156864 26.98176,30.570304 27.39392,30.661184 C27.9904,30.798144 28.53952,30.341184 28.53952,29.744704 L28.53952,25.072704 L29.456,25.072704 C30.00512,25.072704 30.41728,24.477504 30.14208,23.973184 L28.63168,20.858944 L28.63168,18.659904 L30.14208,21.178944 C30.28032,21.408064 30.55552,21.592384 30.82944,21.592384 C30.96768,21.592384 31.15072,21.545024 31.28768,21.454144 C31.65376,21.225024 31.69984,20.720704 31.47072,20.354624 L28.9056,16.048704 Z" id="Fill-8" fill="#24AAE2"></path>
                </g>
            </g>
        </g>
    </g>
</svg>